<?xml version="1.0" encoding="UTF-8"?>
<svg width="772px" height="80px" viewBox="0 0 772 80" version="1.1" xmlns="http://www.w3.org/2000/svg" xmlns:xlink="http://www.w3.org/1999/xlink">
    <!-- Generator: Sketch 42 (36781) - http://www.bohemiancoding.com/sketch -->
    <title>render_graph</title>
    <desc>Created with Sketch.</desc>
    <defs>
        <rect id="path-1" x="-6" y="2" width="784" height="76"></rect>
        <mask id="mask-2" maskContentUnits="userSpaceOnUse" maskUnits="objectBoundingBox" x="0" y="0" width="784" height="76" fill="white">
            <use xlink:href="#path-1"></use>
        </mask>
        <linearGradient x1="14.998694%" y1="13.8375292%" x2="87.3959626%" y2="88.282251%" id="linearGradient-3">
            <stop stop-color="#DBFAF0" offset="0%"></stop>
            <stop stop-color="#E8EBF9" offset="97.322136%"></stop>
            <stop stop-color="#E8EAF9" offset="100%"></stop>
        </linearGradient>
    </defs>
    <g id="Graph-Functions---creation_io" stroke="none" stroke-width="1" fill="none" fill-rule="evenodd">
        <use id="Rectangle" stroke="#979797" mask="url(#mask-2)" stroke-width="2" xlink:href="#path-1"></use>
        <g id="Group-8" transform="translate(278.000000, 20.000000)">
            <g id="graph-object">
                <ellipse id="graph-shape" stroke="#C2C6D5" stroke-width="1" fill="url(#linearGradient-3)" fill-rule="evenodd" cx="20" cy="20" rx="20" ry="20"></ellipse>
                <rect id="graph-text-box" fill-opacity="0.528023098" fill="#FFFFFF" fill-rule="evenodd" x="4" y="14" width="32" height="13" rx="4"></rect>
                <text id="graph-text" font-family="Helvetica-Light, Helvetica" font-size="10" font-weight="300" fill="#9B9B9B">
                    <tspan x="6.5" y="23">graph</tspan>
                </text>
            </g>
            <g id="Wireframe-Line-01" transform="translate(71.000000, 10.000000)" stroke="#666666">
                <g>
                    <polyline id="arrowhead" stroke-width="2" stroke-linecap="round" stroke-linejoin="round" points="56 2 64 10 56 18"></polyline>
                    <path d="M63,10 L0,10" id="Line" stroke-width="2"></path>
                </g>
            </g>
            <g id="graph_view" transform="translate(167.000000, 0.000000)" fill="#90A1E1">
                <g id="Graph_View">
                    <path d="M20.5,0 C18.2453452,0 16.4,1.84534514 16.4,4.1 C16.4,5.24003296 16.8720543,6.27615339 17.63,7.02125 L11.32625,16.7075 C10.862294,16.5241849 10.3670255,16.4 9.84,16.4 C7.58534514,16.4 5.74,18.2453452 5.74,20.5 C5.74,21.9920326 6.56430049,23.2932431 7.764375,24.010625 L4.689375,32.85125 C4.494333,32.8224631 4.30270211,32.8 4.1,32.8 C1.84534514,32.8 0,34.6453452 0,36.9 C0,39.1546548 1.84534514,41 4.1,41 C6.35465486,41 8.2,39.1546548 8.2,36.9 C8.2,35.4286855 7.3994718,34.1386467 6.226875,33.415 L9.3275,24.54875 C9.49846836,24.5707235 9.66331296,24.6 9.84,24.6 C10.016687,24.6 10.1815316,24.5707235 10.3525,24.54875 L13.47875,33.389375 C12.2896032,34.1093178 11.48,35.4161936 11.48,36.9 C11.48,39.1546548 13.3253452,41 15.58,41 C17.8346548,41 19.68,39.1546548 19.68,36.9 C19.68,34.6453452 17.8346548,32.8 15.58,32.8 C15.3946415,32.8 15.2209031,32.8271035 15.041875,32.85125 L11.915625,24.010625 C13.1156999,23.2932431 13.94,21.9920326 13.94,20.5 C13.94,19.3599671 13.4679457,18.3238463 12.71,17.57875 L19.01375,7.8925 C19.477706,8.07581502 19.9729745,8.2 20.5,8.2 C21.0270255,8.2 21.522294,8.07581502 21.98625,7.8925 L28.29,17.57875 C27.5320543,18.3238463 27.06,19.3599671 27.06,20.5 C27.06,21.9920326 27.8843001,23.2932431 29.084375,24.010625 L25.958125,32.85125 C25.7790969,32.8271035 25.6053585,32.8 25.42,32.8 C23.1653452,32.8 21.32,34.6453452 21.32,36.9 C21.32,39.1546548 23.1653452,41 25.42,41 C27.6746548,41 29.52,39.1546548 29.52,36.9 C29.52,35.4161936 28.7103968,34.1093178 27.52125,33.389375 L30.6475,24.54875 C30.8184684,24.5707235 30.983313,24.6 31.16,24.6 C31.336687,24.6 31.5015316,24.5707235 31.6725,24.54875 L34.773125,33.415 C33.6005283,34.1386467 32.8,35.4286855 32.8,36.9 C32.8,39.1546548 34.6453452,41 36.9,41 C39.1546548,41 41,39.1546548 41,36.9 C41,34.6453452 39.1546548,32.8 36.9,32.8 C36.6972976,32.8 36.5056669,32.8224631 36.310625,32.85125 L33.235625,24.010625 C34.4356999,23.2932431 35.26,21.9920326 35.26,20.5 C35.26,18.2453452 33.4146548,16.4 31.16,16.4 C30.6329745,16.4 30.137706,16.5241849 29.67375,16.7075 L23.37,7.02125 C24.1279457,6.27615339 24.6,5.24003296 24.6,4.1 C24.6,1.84534514 22.7546548,0 20.5,0 Z M20.5,1.64 C21.8683332,1.64 22.96,2.7316669 22.96,4.1 C22.96,5.4683331 21.8683332,6.56 20.5,6.56 C19.1316668,6.56 18.04,5.4683331 18.04,4.1 C18.04,2.7316669 19.1316668,1.64 20.5,1.64 Z M9.84,18.04 C11.2083332,18.04 12.3,19.1316668 12.3,20.5 C12.3,21.8683332 11.2083332,22.96 9.84,22.96 C8.47166682,22.96 7.38,21.8683332 7.38,20.5 C7.38,19.1316668 8.47166682,18.04 9.84,18.04 Z M31.16,18.04 C32.5283332,18.04 33.62,19.1316668 33.62,20.5 C33.62,21.8683332 32.5283332,22.96 31.16,22.96 C29.7916668,22.96 28.7,21.8683332 28.7,20.5 C28.7,19.1316668 29.7916668,18.04 31.16,18.04 Z M4.1,34.44 C5.4683331,34.44 6.56,35.5316668 6.56,36.9 C6.56,38.2683332 5.4683331,39.36 4.1,39.36 C2.7316669,39.36 1.64,38.2683332 1.64,36.9 C1.64,35.5316668 2.7316669,34.44 4.1,34.44 Z M15.58,34.44 C16.9483332,34.44 18.04,35.5316668 18.04,36.9 C18.04,38.2683332 16.9483332,39.36 15.58,39.36 C14.2116668,39.36 13.12,38.2683332 13.12,36.9 C13.12,35.5316668 14.2116668,34.44 15.58,34.44 Z M25.42,34.44 C26.7883332,34.44 27.88,35.5316668 27.88,36.9 C27.88,38.2683332 26.7883332,39.36 25.42,39.36 C24.0516668,39.36 22.96,38.2683332 22.96,36.9 C22.96,35.5316668 24.0516668,34.44 25.42,34.44 Z M36.9,34.44 C38.2683332,34.44 39.36,35.5316668 39.36,36.9 C39.36,38.2683332 38.2683332,39.36 36.9,39.36 C35.5316668,39.36 34.44,38.2683332 34.44,36.9 C34.44,35.5316668 35.5316668,34.44 36.9,34.44 Z" id="Shape" fill-rule="nonzero"></path>
                </g>
            </g>
        </g>
    </g>
</svg>